<svg width="46" height="46" viewBox="0 0 46 46" xmlns="http://www.w3.org/2000/svg">
  <g>
    <path d="M23 9.5c3.54 0 6.36 1.22 8.32 3.22l6.18-6.18C33.36 3.14 28.54 1 23 1 14.61 1 7.36 5.98 3.64 13.02l7.36 5.72C12.36 13.14 17.18 9.5 23 9.5z" fill="#EA4335"/>
    <path d="M44.5 23c0-1.54-.14-3.04-.41-4.5H23v9h12.18c-.52 2.8-2.09 5.18-4.45 6.77l7.36 5.72C41.64 36.02 44.5 30.02 44.5 23z" fill="#4285F4"/>
    <path d="M10.99 27.73A13.48 13.48 0 0 1 9.5 23c0-1.64.29-3.23.81-4.73l-7.36-5.72A22.97 22.97 0 0 0 1 23c0 3.64.88 7.09 2.45 10.09l7.54-5.36z" fill="#FBBC05"/>
    <path d="M23 44.5c6.22 0 11.43-2.05 15.23-5.59l-7.54-5.36c-2.09 1.41-4.77 2.25-7.69 2.25-5.82 0-10.74-3.64-12.54-8.73l-7.36 5.72C7.36 40.02 14.61 44.5 23 44.5z" fill="#34A853"/>
    <path d="M1 1h44v44H1z" fill="none"/>
  </g>
</svg> 